<svg xmlns="http://www.w3.org/2000/svg" viewBox="0 0 512 512" role="img" aria-label="Biblical Meditation maskable icon">
  <!-- Maskable icons should keep important content within the safe area. -->
  <defs>
    <linearGradient id="g" x1="0" y1="0" x2="1" y2="1">
      <stop offset="0" stop-color="#5ecfff"/>
      <stop offset="0.55" stop-color="#7c7bf0"/>
      <stop offset="1" stop-color="#a78bfa"/>
    </linearGradient>
    <radialGradient id="bg" cx="50%" cy="35%" r="85%">
      <stop offset="0" stop-color="#12183a"/>
      <stop offset="1" stop-color="#060814"/>
    </radialGradient>
  </defs>
  <rect width="512" height="512" fill="url(#bg)"/>
  <!-- Safe-area group (centered, inset) -->
  <g transform="translate(64 64)">
    <rect width="384" height="384" rx="96" fill="rgba(255,255,255,0.04)" stroke="rgba(255,255,255,0.08)"/>
    <circle cx="150" cy="150" r="86" fill="url(#g)" opacity="0.95"/>
    <path d="M248 106c-39 16-66 55-66 100 0 60 49 109 109 109 27 0 53-10 72-27-18 43-61 74-111 74-67 0-121-54-121-121 0-57 39-105 93-116z"
          fill="#f0f4ff" opacity="0.9"/>
    <path d="M120 294c30-6 61-6 92 0"
          fill="none" stroke="url(#g)" stroke-width="16" stroke-linecap="round" opacity="0.85"/>
  </g>
</svg>

